<mxfile host="Electron" agent="Mozilla/5.0 (Windows NT 10.0; Win64; x64) AppleWebKit/537.36 (KHTML, like Gecko) draw.io/26.2.15 Chrome/134.0.6998.205 Electron/35.2.1 Safari/537.36" version="26.2.15">
  <diagram name="Seite-1" id="zcQzM7zWxxE1rH9N4oyX">
    <mxGraphModel dx="460" dy="347" grid="1" gridSize="10" guides="1" tooltips="1" connect="1" arrows="1" fold="1" page="1" pageScale="1" pageWidth="827" pageHeight="1169" math="0" shadow="0">
      <root>
        <mxCell id="0" />
        <mxCell id="1" parent="0" />
        <mxCell id="eauMmy8dm-vdrQA_N5DQ-1" value="" style="endArrow=none;html=1;rounded=0;exitX=1;exitY=0.5;exitDx=0;exitDy=0;exitPerimeter=0;entryX=0;entryY=0.5;entryDx=0;entryDy=0;entryPerimeter=0;fillColor=#b1ddf0;strokeColor=#10739e;" parent="1" source="eauMmy8dm-vdrQA_N5DQ-14" edge="1">
          <mxGeometry width="50" height="50" relative="1" as="geometry">
            <mxPoint x="360" y="340" as="sourcePoint" />
            <mxPoint x="480" y="339.5" as="targetPoint" />
          </mxGeometry>
        </mxCell>
        <mxCell id="eauMmy8dm-vdrQA_N5DQ-2" value="" style="endArrow=none;html=1;rounded=0;entryX=0.5;entryY=0;entryDx=0;entryDy=0;entryPerimeter=0;fillColor=#60a917;strokeColor=#2D7600;" parent="1" target="eauMmy8dm-vdrQA_N5DQ-12" edge="1">
          <mxGeometry width="50" height="50" relative="1" as="geometry">
            <mxPoint x="500" y="380" as="sourcePoint" />
            <mxPoint x="500" y="400" as="targetPoint" />
          </mxGeometry>
        </mxCell>
        <mxCell id="eauMmy8dm-vdrQA_N5DQ-3" value="" style="endArrow=none;html=1;rounded=0;fillColor=#60a917;strokeColor=#2D7600;" parent="1" edge="1">
          <mxGeometry width="50" height="50" relative="1" as="geometry">
            <mxPoint x="499.76" y="360" as="sourcePoint" />
            <mxPoint x="500" y="370" as="targetPoint" />
          </mxGeometry>
        </mxCell>
        <mxCell id="eauMmy8dm-vdrQA_N5DQ-4" value="" style="endArrow=none;html=1;rounded=0;fillColor=#b1ddf0;strokeColor=#10739e;" parent="1" edge="1">
          <mxGeometry width="50" height="50" relative="1" as="geometry">
            <mxPoint x="299.88" y="360" as="sourcePoint" />
            <mxPoint x="300.12" y="370" as="targetPoint" />
          </mxGeometry>
        </mxCell>
        <mxCell id="eauMmy8dm-vdrQA_N5DQ-5" value="" style="endArrow=none;html=1;rounded=0;exitX=1;exitY=0.5;exitDx=0;exitDy=0;exitPerimeter=0;fillColor=#b1ddf0;strokeColor=#10739e;" parent="1" edge="1">
          <mxGeometry width="50" height="50" relative="1" as="geometry">
            <mxPoint x="540" y="334.76" as="sourcePoint" />
            <mxPoint x="560" y="334.76" as="targetPoint" />
          </mxGeometry>
        </mxCell>
        <mxCell id="eauMmy8dm-vdrQA_N5DQ-6" value="" style="endArrow=none;html=1;rounded=0;fontColor=#FFFFFF;fillColor=#60a917;strokeColor=#2D7600;" parent="1" edge="1">
          <mxGeometry width="50" height="50" relative="1" as="geometry">
            <mxPoint x="540" y="354.76" as="sourcePoint" />
            <mxPoint x="560" y="354.76" as="targetPoint" />
          </mxGeometry>
        </mxCell>
        <mxCell id="eauMmy8dm-vdrQA_N5DQ-7" value="1000 MBit/s" style="text;html=1;align=center;verticalAlign=middle;resizable=0;points=[];autosize=1;strokeColor=none;fillColor=none;" parent="1" vertex="1">
          <mxGeometry x="553" y="320" width="90" height="30" as="geometry" />
        </mxCell>
        <mxCell id="eauMmy8dm-vdrQA_N5DQ-8" value="100&lt;span style=&quot;background-color: transparent; color: light-dark(rgb(0, 0, 0), rgb(255, 255, 255));&quot;&gt;&amp;nbsp;MBit/s&lt;/span&gt;" style="text;html=1;align=center;verticalAlign=middle;resizable=0;points=[];autosize=1;strokeColor=none;fillColor=none;" parent="1" vertex="1">
          <mxGeometry x="555" y="340" width="80" height="30" as="geometry" />
        </mxCell>
        <mxCell id="eauMmy8dm-vdrQA_N5DQ-9" value="" style="endArrow=none;html=1;rounded=0;exitX=1;exitY=0.5;exitDx=0;exitDy=0;exitPerimeter=0;entryX=0;entryY=0.5;entryDx=0;entryDy=0;entryPerimeter=0;fontColor=#FFFFFF;fillColor=#60a917;strokeColor=#2D7600;" parent="1" source="eauMmy8dm-vdrQA_N5DQ-29" target="eauMmy8dm-vdrQA_N5DQ-12" edge="1">
          <mxGeometry width="50" height="50" relative="1" as="geometry">
            <mxPoint x="320" y="460" as="sourcePoint" />
            <mxPoint x="340" y="460" as="targetPoint" />
          </mxGeometry>
        </mxCell>
        <mxCell id="eauMmy8dm-vdrQA_N5DQ-10" value="" style="endArrow=none;html=1;rounded=0;entryX=0.5;entryY=0;entryDx=0;entryDy=0;entryPerimeter=0;fillColor=#b1ddf0;strokeColor=#10739e;" parent="1" target="eauMmy8dm-vdrQA_N5DQ-13" edge="1">
          <mxGeometry width="50" height="50" relative="1" as="geometry">
            <mxPoint x="300" y="380" as="sourcePoint" />
            <mxPoint x="300" y="412" as="targetPoint" />
          </mxGeometry>
        </mxCell>
        <mxCell id="eauMmy8dm-vdrQA_N5DQ-11" value="S2" style="shape=mxgraph.cisco.switches.atm_fast_gigabit_etherswitch;sketch=0;html=1;pointerEvents=1;dashed=0;fillColor=#036897;strokeColor=#ffffff;strokeWidth=2;verticalLabelPosition=bottom;verticalAlign=top;align=center;outlineConnect=0;" parent="1" vertex="1">
          <mxGeometry x="480" y="320" width="40" height="40" as="geometry" />
        </mxCell>
        <mxCell id="eauMmy8dm-vdrQA_N5DQ-12" value="S3" style="shape=mxgraph.cisco.switches.atm_fast_gigabit_etherswitch;sketch=0;html=1;pointerEvents=1;dashed=0;fillColor=#036897;strokeColor=#ffffff;strokeWidth=2;verticalLabelPosition=bottom;verticalAlign=top;align=center;outlineConnect=0;" parent="1" vertex="1">
          <mxGeometry x="480" y="440" width="40" height="40" as="geometry" />
        </mxCell>
        <mxCell id="eauMmy8dm-vdrQA_N5DQ-13" value="S4" style="shape=mxgraph.cisco.switches.atm_fast_gigabit_etherswitch;sketch=0;html=1;pointerEvents=1;dashed=0;fillColor=#036897;strokeColor=#ffffff;strokeWidth=2;verticalLabelPosition=bottom;verticalAlign=top;align=center;outlineConnect=0;" parent="1" vertex="1">
          <mxGeometry x="280" y="440" width="40" height="40" as="geometry" />
        </mxCell>
        <mxCell id="eauMmy8dm-vdrQA_N5DQ-14" value="S1" style="shape=mxgraph.cisco.switches.atm_fast_gigabit_etherswitch;sketch=0;html=1;pointerEvents=1;dashed=0;fillColor=#036897;strokeColor=#ffffff;strokeWidth=2;verticalLabelPosition=bottom;verticalAlign=top;align=center;outlineConnect=0;" parent="1" vertex="1">
          <mxGeometry x="280" y="320" width="40" height="40" as="geometry" />
        </mxCell>
        <mxCell id="eauMmy8dm-vdrQA_N5DQ-15" value="&lt;font style=&quot;color: rgb(255, 0, 0);&quot;&gt;4&lt;/font&gt;" style="text;html=1;align=center;verticalAlign=middle;resizable=0;points=[];autosize=1;strokeColor=none;fillColor=none;" parent="1" vertex="1">
          <mxGeometry x="384" y="310" width="30" height="30" as="geometry" />
        </mxCell>
        <mxCell id="eauMmy8dm-vdrQA_N5DQ-16" value="&lt;font style=&quot;color: rgb(255, 0, 0);&quot;&gt;19&lt;/font&gt;" style="text;html=1;align=center;verticalAlign=middle;resizable=0;points=[];autosize=1;strokeColor=none;fillColor=none;" parent="1" vertex="1">
          <mxGeometry x="500" y="390" width="40" height="30" as="geometry" />
        </mxCell>
        <mxCell id="eauMmy8dm-vdrQA_N5DQ-17" value="&lt;font style=&quot;color: rgb(255, 0, 0);&quot;&gt;4&lt;/font&gt;" style="text;html=1;align=center;verticalAlign=middle;resizable=0;points=[];autosize=1;strokeColor=none;fillColor=none;" parent="1" vertex="1">
          <mxGeometry x="270" y="390" width="30" height="30" as="geometry" />
        </mxCell>
        <mxCell id="eauMmy8dm-vdrQA_N5DQ-20" value="&lt;b&gt;&lt;font style=&quot;font-size: 7px; color: rgb(204, 204, 0);&quot;&gt;R&lt;/font&gt;&lt;/b&gt;" style="text;html=1;align=center;verticalAlign=middle;resizable=0;points=[];autosize=1;strokeColor=none;fillColor=none;" parent="1" vertex="1">
          <mxGeometry x="490" y="416" width="30" height="30" as="geometry" />
        </mxCell>
        <mxCell id="eauMmy8dm-vdrQA_N5DQ-22" value="&lt;b&gt;&lt;font style=&quot;font-size: 7px; color: rgb(204, 204, 0);&quot;&gt;R&lt;/font&gt;&lt;/b&gt;" style="text;html=1;align=center;verticalAlign=middle;resizable=0;points=[];autosize=1;strokeColor=none;fillColor=none;" parent="1" vertex="1">
          <mxGeometry x="310" y="317" width="30" height="30" as="geometry" />
        </mxCell>
        <mxCell id="eauMmy8dm-vdrQA_N5DQ-23" value="&lt;b&gt;&lt;font style=&quot;font-size: 7px; color: rgb(204, 204, 0);&quot;&gt;R&lt;/font&gt;&lt;/b&gt;" style="text;html=1;align=center;verticalAlign=middle;resizable=0;points=[];autosize=1;strokeColor=none;fillColor=none;" parent="1" vertex="1">
          <mxGeometry x="290" y="416" width="30" height="30" as="geometry" />
        </mxCell>
        <mxCell id="eauMmy8dm-vdrQA_N5DQ-24" value="&lt;b&gt;&lt;font style=&quot;font-size: 7px; color: rgb(204, 204, 0);&quot;&gt;D&lt;/font&gt;&lt;/b&gt;" style="text;html=1;align=center;verticalAlign=middle;resizable=0;points=[];autosize=1;strokeColor=none;fillColor=none;" parent="1" vertex="1">
          <mxGeometry x="490" y="349" width="30" height="30" as="geometry" />
        </mxCell>
        <mxCell id="eauMmy8dm-vdrQA_N5DQ-25" value="&lt;b&gt;&lt;font style=&quot;font-size: 7px; color: rgb(204, 204, 0);&quot;&gt;D&lt;/font&gt;&lt;/b&gt;" style="text;html=1;align=center;verticalAlign=middle;resizable=0;points=[];autosize=1;strokeColor=none;fillColor=none;" parent="1" vertex="1">
          <mxGeometry x="459" y="317" width="30" height="30" as="geometry" />
        </mxCell>
        <mxCell id="eauMmy8dm-vdrQA_N5DQ-27" value="&lt;b&gt;&lt;font style=&quot;font-size: 7px; color: rgb(204, 204, 0);&quot;&gt;D&lt;/font&gt;&lt;/b&gt;" style="text;html=1;align=center;verticalAlign=middle;resizable=0;points=[];autosize=1;strokeColor=none;fillColor=none;" parent="1" vertex="1">
          <mxGeometry x="310" y="437" width="30" height="30" as="geometry" />
        </mxCell>
        <mxCell id="eauMmy8dm-vdrQA_N5DQ-28" value="&lt;b&gt;&lt;font style=&quot;font-size: 7px; color: rgb(204, 204, 0);&quot;&gt;D&lt;/font&gt;&lt;/b&gt;" style="text;html=1;align=center;verticalAlign=middle;resizable=0;points=[];autosize=1;strokeColor=none;fillColor=none;" parent="1" vertex="1">
          <mxGeometry x="290" y="349" width="30" height="30" as="geometry" />
        </mxCell>
        <mxCell id="eauMmy8dm-vdrQA_N5DQ-30" value="" style="endArrow=none;html=1;rounded=0;exitX=1;exitY=0.5;exitDx=0;exitDy=0;exitPerimeter=0;entryX=0;entryY=0.5;entryDx=0;entryDy=0;entryPerimeter=0;fontColor=#FFFFFF;fillColor=#60a917;strokeColor=#2D7600;" parent="1" source="eauMmy8dm-vdrQA_N5DQ-13" target="eauMmy8dm-vdrQA_N5DQ-29" edge="1">
          <mxGeometry width="50" height="50" relative="1" as="geometry">
            <mxPoint x="320" y="460" as="sourcePoint" />
            <mxPoint x="480" y="460" as="targetPoint" />
          </mxGeometry>
        </mxCell>
        <mxCell id="eauMmy8dm-vdrQA_N5DQ-29" value="" style="verticalLabelPosition=bottom;verticalAlign=top;html=1;shape=mxgraph.basic.x;fillColor=#f8cecc;strokeColor=#b85450;gradientColor=#ea6b66;" parent="1" vertex="1">
          <mxGeometry x="465" y="456" width="11" height="8" as="geometry" />
        </mxCell>
        <mxCell id="eauMmy8dm-vdrQA_N5DQ-32" value="&lt;b&gt;&lt;font style=&quot;font-size: 7px; color: rgb(204, 204, 0);&quot;&gt;R&lt;/font&gt;&lt;/b&gt;" style="text;html=1;align=center;verticalAlign=middle;resizable=0;points=[];autosize=1;strokeColor=none;fillColor=none;" parent="1" vertex="1">
          <mxGeometry x="540" y="360" width="30" height="30" as="geometry" />
        </mxCell>
        <mxCell id="eauMmy8dm-vdrQA_N5DQ-33" value="&lt;b&gt;&lt;font style=&quot;font-size: 7px; color: rgb(204, 204, 0);&quot;&gt;D&lt;/font&gt;&lt;/b&gt;" style="text;html=1;align=center;verticalAlign=middle;resizable=0;points=[];autosize=1;strokeColor=none;fillColor=none;" parent="1" vertex="1">
          <mxGeometry x="540" y="379" width="30" height="30" as="geometry" />
        </mxCell>
        <mxCell id="eauMmy8dm-vdrQA_N5DQ-34" value="" style="verticalLabelPosition=bottom;verticalAlign=top;html=1;shape=mxgraph.basic.x;fillColor=#f8cecc;strokeColor=#b85450;gradientColor=#ea6b66;" parent="1" vertex="1">
          <mxGeometry x="549.5" y="412" width="11" height="8" as="geometry" />
        </mxCell>
        <mxCell id="eauMmy8dm-vdrQA_N5DQ-35" value="Root-Port" style="text;html=1;align=left;verticalAlign=middle;resizable=0;points=[];autosize=1;strokeColor=none;fillColor=none;" parent="1" vertex="1">
          <mxGeometry x="565" y="360" width="70" height="30" as="geometry" />
        </mxCell>
        <mxCell id="eauMmy8dm-vdrQA_N5DQ-36" value="Designated-Port" style="text;html=1;align=left;verticalAlign=middle;resizable=0;points=[];autosize=1;strokeColor=none;fillColor=none;" parent="1" vertex="1">
          <mxGeometry x="565" y="379" width="110" height="30" as="geometry" />
        </mxCell>
        <mxCell id="eauMmy8dm-vdrQA_N5DQ-38" value="Alternate/Blocking" style="text;html=1;align=left;verticalAlign=middle;resizable=0;points=[];autosize=1;strokeColor=none;fillColor=none;" parent="1" vertex="1">
          <mxGeometry x="565" y="400" width="120" height="30" as="geometry" />
        </mxCell>
        <mxCell id="EHqAJiKwD3OVjtpaswky-6" style="edgeStyle=orthogonalEdgeStyle;rounded=0;orthogonalLoop=1;jettySize=auto;html=1;exitX=0.5;exitY=1;exitDx=0;exitDy=0;" parent="1" source="EHqAJiKwD3OVjtpaswky-2" edge="1">
          <mxGeometry relative="1" as="geometry">
            <mxPoint x="360" y="430" as="targetPoint" />
          </mxGeometry>
        </mxCell>
        <mxCell id="EHqAJiKwD3OVjtpaswky-2" value="" style="ellipse;whiteSpace=wrap;html=1;fillColor=none;strokeColor=#b85450;" parent="1" vertex="1">
          <mxGeometry x="389" y="315" width="20" height="20" as="geometry" />
        </mxCell>
        <mxCell id="EHqAJiKwD3OVjtpaswky-4" style="edgeStyle=orthogonalEdgeStyle;rounded=0;orthogonalLoop=1;jettySize=auto;html=1;exitX=0;exitY=0.5;exitDx=0;exitDy=0;" parent="1" source="EHqAJiKwD3OVjtpaswky-3" edge="1">
          <mxGeometry relative="1" as="geometry">
            <mxPoint x="471" y="450" as="targetPoint" />
          </mxGeometry>
        </mxCell>
        <mxCell id="EHqAJiKwD3OVjtpaswky-5" style="edgeStyle=orthogonalEdgeStyle;rounded=0;orthogonalLoop=1;jettySize=auto;html=1;exitX=1;exitY=0.5;exitDx=0;exitDy=0;entryX=1;entryY=0.433;entryDx=0;entryDy=0;entryPerimeter=0;" parent="1" source="EHqAJiKwD3OVjtpaswky-1" target="eauMmy8dm-vdrQA_N5DQ-27" edge="1">
          <mxGeometry relative="1" as="geometry" />
        </mxCell>
        <mxCell id="EHqAJiKwD3OVjtpaswky-7" value="&lt;font style=&quot;color: rgb(204, 0, 0);&quot;&gt;= 8&lt;/font&gt;" style="text;html=1;align=center;verticalAlign=middle;resizable=0;points=[];autosize=1;strokeColor=none;fillColor=none;" parent="1" vertex="1">
          <mxGeometry x="354" y="426" width="40" height="30" as="geometry" />
        </mxCell>
        <mxCell id="EHqAJiKwD3OVjtpaswky-3" value="" style="ellipse;whiteSpace=wrap;html=1;fillColor=none;strokeColor=#b85450;" parent="1" vertex="1">
          <mxGeometry x="511" y="395" width="20" height="20" as="geometry" />
        </mxCell>
        <mxCell id="EHqAJiKwD3OVjtpaswky-1" value="" style="ellipse;whiteSpace=wrap;html=1;fillColor=none;strokeColor=#b85450;" parent="1" vertex="1">
          <mxGeometry x="275" y="395" width="20" height="20" as="geometry" />
        </mxCell>
      </root>
    </mxGraphModel>
  </diagram>
</mxfile>
